<?xml version="1.0" encoding="UTF-8"?>
<svg id="_レイヤー_2" data-name="レイヤー 2" xmlns="http://www.w3.org/2000/svg" viewBox="0 0 402.13 42.24">
  <defs>
    <style>
      .cls-1 {
        fill: #fff;
      }
    </style>
  </defs>
  <g id="Labels">
    <g>
      <g>
        <path class="cls-1" d="M65.42,14.93c1.42,0,1.71-.07,2.03-.22.12-.07.24-.12.34-.12.15,0,.29.07.42.2.66.59,1.22,1.2,1.76,1.95.12.2.2.37.2.54,0,.2-.1.37-.32.51-.51.37-.85.59-1.17.93-2.1,2.32-4.37,4.59-6.56,6.54.78.78,1.44,1.54,2.15,2.44.12.15.17.24.17.37s-.07.24-.22.39c-.49.49-1.03,1-1.59,1.44-.12.07-.22.12-.32.12s-.2-.07-.29-.22c-2.37-3.05-4.83-5.44-7.83-7.59.49-.46,1.32-1.24,1.76-1.64.1-.07.2-.12.27-.12.1,0,.2.07.34.17,1.27.93,2.44,1.78,3.47,2.73,2.05-1.78,3.83-3.66,5.64-5.76l-10.27.05c-1.42,0-3.22.05-4.54.17-.32,0-.39-.15-.44-.44-.15-.85-.24-1.71-.29-2.61,1.66.17,3.64.17,5.32.17h10.01Z"/>
        <path class="cls-1" d="M76.93,15.1c0-1.68-.07-2.61-.27-3.56,1.03.12,2.32.27,3.03.51.29.07.42.22.42.39,0,.12-.05.24-.1.37-.22.46-.27,1.07-.27,2.32v4.93c0,1.27.05,2.22.07,3.08,0,.37-.15.49-.54.49h-1.95c-.34,0-.49-.12-.46-.42,0-.85.07-2.27.07-3.32v-4.78ZM88.43,19.67c0,3.61-.54,6.03-1.98,7.96-1.2,1.59-3.32,3.07-5.37,3.83-.2.07-.37.12-.51.12-.2,0-.37-.07-.59-.29-.59-.59-1.22-1.05-2.07-1.49,2.61-.81,4.66-1.95,5.95-3.56,1.12-1.39,1.64-3.42,1.64-6.52v-4.61c0-2.1-.05-2.88-.27-3.98,1.17.1,2.34.27,3.17.54.24.07.34.22.34.42,0,.12-.02.27-.1.39-.22.51-.22,1.15-.22,2.66v4.54Z"/>
        <path class="cls-1" d="M96.92,13.27c.1-.12.22-.2.34-.2.1,0,.2.05.32.12,1.24.66,3.27,2.15,4.66,3.47.15.15.22.24.22.34s-.05.2-.15.32c-.37.49-1.17,1.47-1.51,1.83-.12.12-.2.2-.29.2s-.2-.07-.32-.2c-1.46-1.51-3.22-2.9-4.98-3.98.54-.66,1.24-1.42,1.71-1.9ZM99.04,26.14c2.98-1.54,4.56-2.56,7.03-4.54,2.98-2.42,4.61-3.98,6.69-6.64.15,1.22.37,2.05.68,2.86.07.17.12.32.12.46,0,.22-.12.42-.39.73-1.29,1.51-3.39,3.47-5.61,5.17-2.03,1.59-4.08,2.95-7.37,4.78-1.1.66-1.42.9-1.64,1.12-.15.15-.29.24-.44.24-.12,0-.27-.1-.42-.27-.61-.68-1.37-1.68-1.95-2.71,1.24-.34,2-.56,3.29-1.22Z"/>
        <path class="cls-1" d="M131.79,18.67c-.22,3.25-.76,5.25-1.98,7.47-1.2,2.12-2.83,4-4.83,5.22-.15.12-.34.2-.51.2-.15,0-.27-.05-.42-.17-.73-.49-1.66-.83-2.51-1.07,2.83-1.68,4.37-3.17,5.51-5.25,1.05-1.88,1.56-3.78,1.68-6.39h-5.03c-1.03,1.61-2.27,3.12-3.39,4.2-.12.12-.27.2-.41.2-.12,0-.24-.05-.34-.12-.61-.39-1.54-.73-2.27-.88,2.73-2.66,4.42-5.08,5.76-7.96.54-1.22.83-2.05.98-3.37.95.29,2.17.71,2.93,1.12.2.07.29.24.29.42s-.1.37-.27.46c-.34.22-.59.68-.73,1-.37.85-.81,1.73-1.12,2.34h7.83c1.51,0,3.15-.1,4.69-.12.29,0,.39.12.39.44.02.66.02,1.32,0,1.98,0,.24-.1.39-.34.39-1-.05-2.98-.1-4.47-.1h-1.44Z"/>
        <path class="cls-1" d="M147.11,15.42c-1.39,0-2.88.1-4.32.2-.29.02-.39-.15-.44-.37-.2-.68-.34-1.9-.44-2.64,1.66.12,3,.17,4.95.17h10.47c1.03,0,1.44-.05,1.68-.15.12-.05.34-.17.46-.17.2,0,.39.15.56.34.54.46,1,.98,1.46,1.54.12.15.2.29.2.44,0,.2-.12.37-.34.51-.27.2-.46.44-.66.71-1.15,1.73-2.66,3.42-4.29,4.71-.15.15-.32.22-.51.22s-.42-.1-.59-.24c-.61-.49-1.22-.76-2.03-1,1.95-1.46,3.15-2.51,4.37-4.27h-10.54ZM148.47,24.94c.93-1.73,1.2-3.39,1.2-5.76,0-.9-.05-1.46-.24-2.29,1.2.12,2.47.29,3.15.46.32.07.41.24.41.46,0,.15-.05.29-.12.44-.17.34-.2.59-.22,1-.07,2.37-.32,4.54-1.44,6.71-.95,1.83-2.42,3.56-4.44,4.86-.22.15-.44.24-.68.24-.17,0-.34-.07-.49-.22-.59-.51-1.29-.9-2.22-1.24,2.66-1.39,4.05-2.71,5.1-4.66Z"/>
        <path class="cls-1" d="M171.58,14.23c1.86,0,2.47-.05,2.61-.05.24,0,.27.02.27.27v1.73c0,.27-.02.29-.27.29-.15,0-.76-.05-2.61-.05h-3.05c-1.85,0-2.46.05-2.61.05-.22,0-.24-.02-.24-.29v-1.73c0-.24.02-.27.24-.27.15,0,.76.05,2.61.05h3.05ZM180.19,21.69c-.44,4.08-1.51,7.32-4,10.03-.24.27-.39.39-.51.39s-.24-.15-.49-.46c-.39-.46-.81-.88-1.24-1.2.02.71.05.93.05,1,0,.24-.02.27-.27.27h-1.73c-.24,0-.27-.02-.27-.27v-.71h-2.56v1.17c0,.22-.02.24-.27.24h-1.73c-.27,0-.29-.02-.29-.24,0-.17.05-.73.05-3.61v-1.56c0-1.54-.05-2.12-.05-2.3,0-.24.02-.27.29-.27.15,0,.66.05,2.22.05h2.1c1.59,0,2.07-.05,2.25-.05.24,0,.27.02.27.27,0,.15-.05.73-.05,1.88v3.78c3.29-3.12,3.95-7.39,4.03-13.72-1.76.02-2.44.05-2.56.05-.24,0-.27-.02-.27-.29v-1.83c0-.24.02-.27.27-.27.15,0,.9.05,3.15.05h1.29v-1.49c0-1.05-.02-1.71-.17-2.59.88.02,1.76.1,2.59.17.24.02.41.15.41.27,0,.2-.07.34-.15.51-.1.22-.17.66-.17,1.64v1.49h2.07c2.25,0,3.03-.05,3.17-.05.22,0,.24.02.24.27v1.83c0,.27-.02.29-.24.29-.15,0-.93-.05-3.17-.05h-3.98c-.02,1.05-.05,2.03-.1,2.98h3.81c1.51,0,1.98-.05,2.12-.05.24,0,.29.05.29.29-.05.59-.05,1.27-.05,1.86-.07,3.83-.29,5.98-.59,7.49-.44,2.25-1.32,3.05-3.73,3.05-.37,0-.83-.02-1.24-.05q-.51-.05-.59-.83c-.12-.76-.34-1.37-.59-1.81,1.03.17,1.71.22,2.29.22.81,0,1.17-.44,1.37-1.29.29-1.32.54-3.12.56-6.56h-3.83ZM171.73,10.91c1.56,0,2.05-.05,2.2-.05.27,0,.29.02.29.27v1.61c0,.24-.02.27-.29.27-.15,0-.63-.05-2.2-.05h-2.29c-1.59,0-2.07.05-2.22.05-.24,0-.27-.02-.27-.27v-1.61c0-.24.02-.27.27-.27.15,0,.63.05,2.22.05h2.29ZM171.43,17.67c1.49,0,1.9-.05,2.05-.05.27,0,.29.02.29.27v1.59c0,.24-.02.27-.29.27-.15,0-.56-.05-2.05-.05h-1.9c-1.49,0-1.93.05-2.07.05-.24,0-.27-.02-.27-.27v-1.59c0-.24.02-.27.27-.27.15,0,.59.05,2.07.05h1.9ZM171.43,20.94c1.49,0,1.9-.05,2.05-.05.27,0,.29.02.29.27v1.56c0,.24-.02.27-.29.27-.15,0-.56-.05-2.05-.05h-1.9c-1.49,0-1.93.05-2.07.05-.24,0-.27-.02-.27-.27v-1.56c0-.24.02-.27.27-.27.15,0,.59.05,2.07.05h1.9ZM169.16,26.26v2.46h2.56v-2.46h-2.56Z"/>
        <path class="cls-1" d="M198.64,10.76c1.59,0,2.29-.05,2.44-.05.22,0,.24.02.24.27,0,.15-.05.88-.05,2.42v3.17c0,1.51.05,2.25.05,2.39,0,.24-.02.27-.24.27-.15,0-.85-.05-2.44-.05h-3.9v7.61c0,3.37.05,5.03.05,5.2,0,.24-.02.27-.27.27h-2.07c-.24,0-.27-.02-.27-.27,0-.17.05-1.83.05-5.2v-10.57c0-3.37-.05-5.08-.05-5.25,0-.24.02-.27.27-.27.17,0,1.07.05,2.85.05h3.34ZM194.73,12.62v1.44h4.15v-1.44h-4.15ZM198.88,15.74h-4.15v1.66h4.15v-1.66ZM198,29.94c-.24,0-.27,0-.27-.24,0-.15.05-.76.05-3.98v-1.76c0-1.78-.05-2.42-.05-2.59,0-.24.02-.27.27-.27.17,0,.76.05,2.59.05h3.2c1.83,0,2.42-.05,2.59-.05.24,0,.27.02.27.27,0,.15-.05.78-.05,2.12v1.88c0,3.07.05,3.66.05,3.81,0,.27-.02.29-.27.29h-1.78c-.27,0-.29-.02-.29-.29v-.81h-4.22v1.32c0,.24-.02.24-.29.24h-1.78ZM200.08,26.31h4.22v-3.08h-4.22v3.08ZM212.38,24.23c0,1.71.1,3.66.1,4.86s-.15,1.73-.71,2.25c-.54.49-1.22.66-3.39.66-.78,0-.78.02-.93-.76-.12-.71-.32-1.29-.56-1.81.73.1,1.34.12,1.98.12.81,0,1-.22,1-.95v-9.42h-3.9c-1.9,0-2.54.05-2.68.05-.27,0-.29-.02-.29-.27,0-.17.05-.73.05-2.2v-3.56c0-1.46-.05-2.05-.05-2.22,0-.24.02-.27.29-.27.15,0,.78.05,2.68.05h3.51c1.88,0,2.54-.05,2.68-.05.24,0,.27.02.27.27,0,.15-.05,1.17-.05,3.25v10.01ZM205.42,12.62v1.44h4.44v-1.44h-4.44ZM209.86,17.4v-1.66h-4.44v1.66h4.44Z"/>
        <path class="cls-1" d="M222.53,24.35c-1.07,1.17-2.27,2.29-3.61,3.29-.27.22-.41.34-.56.34s-.24-.17-.46-.54c-.37-.56-.76-.93-1.27-1.34,2.78-1.64,4.95-3.76,6.49-6.35h-2.73c-2.17,0-2.9.05-3.05.05-.27,0-.29-.02-.29-.27v-1.59c0-.24.02-.27.29-.27.15,0,.88.05,3.05.05h3.76c.2-.44.37-.88.54-1.34h-2.51c-2.37,0-3.15.05-3.29.05-.24,0-.27-.02-.27-.27v-1.51c0-.24.02-.27.27-.27.15,0,.93.05,3.29.05h3.07c.1-.42.2-.85.27-1.32-1.71.1-3.39.17-5.12.17q-.59,0-.81-.66c-.2-.54-.37-.93-.71-1.32,2.73.05,5.17-.02,7.59-.2,2.42-.2,4.42-.46,6.22-.76.63-.1,1.07-.22,1.59-.42.61.42,1.22.93,1.73,1.42.2.22.27.32.27.49,0,.22-.12.27-.44.27-.37,0-.76.05-1.27.12-2.15.32-4.2.51-6.49.71-.07.51-.2,1-.32,1.49h5.88c2.34,0,3.15-.05,3.29-.05.24,0,.27.02.27.27v1.51c0,.24-.02.27-.27.27-.15,0-.95-.05-3.29-.05h-6.44c-.15.46-.29.9-.49,1.34h8.66c2.17,0,2.9-.05,3.05-.05.24,0,.27.02.27.27v1.59c0,.24-.02.27-.27.27-.15,0-.88-.05-3.05-.05h-9.62c-.24.44-.46.85-.73,1.27h7.15c2.07,0,3.12-.05,3.27-.05.24,0,.27.02.27.27,0,.17-.05.93-.05,3.49v2.78c0,3.56.05,4.32.05,4.47,0,.24-.02.27-.27.27h-1.93c-.24,0-.27-.02-.27-.27v-.73h-8.32v.76c0,.24-.02.27-.27.27h-1.9c-.24,0-.27-.02-.27-.27,0-.12.05-.93.05-4.44v-3.22ZM224.92,22.87v1.15h8.32v-1.15h-8.32ZM233.24,26.7v-1.15h-8.32v1.15h8.32ZM233.24,29.43v-1.2h-8.32v1.2h8.32Z"/>
        <path class="cls-1" d="M247.58,14.25c1.9,0,2.54-.05,2.66-.05.24,0,.27.02.27.27v1.73c0,.27-.02.29-.27.29-.12,0-.76-.05-2.66-.05h-2.2c-1.9,0-2.51.05-2.66.05-.24,0-.27-.02-.27-.29v-1.73c0-.24.02-.27.27-.27.15,0,.76.05,2.66.05h2.2ZM249.85,28.11c0,2.83.05,3.37.05,3.52,0,.24-.02.27-.27.27h-1.68c-.22,0-.24-.02-.24-.27v-.66h-2.15v1.1c0,.24-.02.27-.24.27h-1.71c-.27,0-.29-.02-.29-.27,0-.15.05-.71.05-3.66v-1.56c0-1.54-.05-2.12-.05-2.29,0-.24.02-.27.29-.27.15,0,.68.05,2.27.05h1.46c1.61,0,2.12-.05,2.29-.05.24,0,.27.02.27.27,0,.15-.05.73-.05,1.88v1.68ZM247.44,10.91c1.61,0,2.1-.05,2.25-.05.27,0,.29.02.29.27v1.61c0,.24-.02.27-.29.27-.15,0-.63-.05-2.25-.05h-1.56c-1.61,0-2.12.05-2.27.05-.24,0-.27-.02-.27-.27v-1.61c0-.24.02-.27.27-.27.15,0,.66.05,2.27.05h1.56ZM247.14,17.72c1.49,0,1.95-.05,2.1-.05.27,0,.29.02.29.27v1.59c0,.24-.02.27-.29.27-.15,0-.61-.05-2.1-.05h-1.17c-1.51,0-1.98.05-2.12.05-.24,0-.27-.02-.27-.27v-1.59c0-.24.02-.27.27-.27.15,0,.61.05,2.12.05h1.17ZM247.14,21.01c1.49,0,1.95-.05,2.1-.05.27,0,.29.02.29.27v1.56c0,.24-.02.27-.29.27-.15,0-.61-.05-2.1-.05h-1.17c-1.51,0-1.98.05-2.12.05-.24,0-.27-.02-.27-.27v-1.56c0-.24.02-.27.27-.27.15,0,.61.05,2.12.05h1.17ZM245.56,26.35v2.59h2.15v-2.59h-2.15ZM251.66,19.77c-.27.27-.44.39-.59.39s-.24-.15-.42-.37c-.32-.44-.63-.81-.95-1.05,1.07-.93,1.95-1.93,2.61-3.03.24-.42.42-.83.54-1.29.81.15,1.39.32,1.81.46.32.12.37.15.37.27,0,.1-.05.2-.2.32-.1.1-.22.24-.34.44h2.68l.32-.66c.12-.29.17-.49.22-.78.71.12,1.46.29,2.03.42.17.05.24.12.24.2,0,.15-.1.22-.17.27-.12.1-.24.29-.32.44l-.07.12h1.54c1.98,0,2.61-.05,2.76-.05.24,0,.27.02.27.27v1c0,.24-.02.27-.27.27-.15,0-.78-.05-2.76-.05h-1.71v1h1.15c1.59,0,2.44-.05,2.59-.05.27,0,.29.02.29.27v.85c0,.24-.02.27-.29.27-.15,0-1-.05-2.59-.05h-1.15v.98h1.15c1.59,0,2.47-.05,2.61-.05.24,0,.27.02.27.29v.81c0,.27-.02.29-.27.29-.15,0-1.03-.05-2.59-.05h-1.17v1h1.66c2.22,0,2.98-.05,3.12-.05.24,0,.27.02.27.29v.98c0,.24-.02.27-.27.27-.15,0-.9-.05-3.12-.05h-5.61c-2.22,0-2.98.05-3.12.05-.27,0-.27-.02-.27-.27,0-.2.05-.88.05-2.12v-1.37c0-.44-.02-.83,0-1.2l-.29.32ZM260.49,25.21c.34,0,.51-.02.61-.07.12-.05.2-.1.29-.1.12,0,.34.07.93.59.61.54.73.73.73.9,0,.22-.07.32-.29.44-.2.1-.42.24-.73.59-.68.68-1.37,1.27-2.1,1.81,1.34.34,3,.56,5.15.68-.29.37-.51.88-.71,1.42q-.27.73-1,.66c-2.34-.24-4.22-.71-5.81-1.42-1.54.68-3.34,1.17-5.64,1.49-.76.12-.78.12-1.07-.61-.2-.49-.42-.85-.73-1.24,2.1-.2,3.81-.49,5.25-.95-.9-.68-1.68-1.49-2.39-2.47-1.03.02-1.49.05-1.59.05-.24,0-.27-.02-.27-.27v-1.24c0-.27.02-.29.27-.29.15,0,.9.05,3.08.05h6.03ZM253.93,11.47c0-.76-.05-1.15-.12-1.56.76.02,1.46.07,2.15.15.2.02.32.12.32.2,0,.12-.02.17-.1.29-.1.15-.17.39-.17.76v.34h2.93v-.17c0-.76-.05-1.15-.12-1.56.76.02,1.44.07,2.12.15.2.02.32.1.32.2,0,.12-.02.17-.1.29-.1.15-.15.39-.15.76v.34h.12c2.32,0,3.12-.05,3.27-.05.24,0,.27.02.27.27v1.39c0,.24-.02.27-.27.27-.15,0-.95-.05-3.27-.05h-.12c0,.51.05.81.05.9,0,.24-.02.27-.29.27h-1.61c-.24,0-.27-.02-.27-.27,0-.12.02-.39.05-.9h-2.93c0,.51.05.81.05.9,0,.24-.02.27-.27.27h-1.64c-.24,0-.27-.02-.27-.27,0-.12.02-.39.05-.9-2.12,0-2.88.05-3.03.05-.24,0-.27-.02-.27-.27v-1.39c0-.24.02-.27.27-.27.15,0,.9.05,3.03.05v-.17ZM257.13,18.35v-1h-2.98v1h2.98ZM257.13,20.62v-.98h-2.98v.98h2.98ZM257.13,22.91v-1h-2.98v1h2.98ZM255.49,26.92c.63.63,1.29,1.17,2.1,1.59.88-.44,1.64-.98,2.34-1.59h-4.44Z"/>
        <path class="cls-1" d="M281.06,13.42c.88,0,1.32-.02,1.68-.22.1-.07.17-.1.27-.1.15,0,.27.1.42.2.56.44,1.12,1.07,1.59,1.71.07.12.12.22.12.32,0,.15-.1.32-.32.49-.32.27-.63.63-.9,1.07-1,1.71-1.95,3.07-3.12,4.56,2.34,1.73,4.51,3.64,6.76,5.91.12.12.2.24.2.34s-.05.22-.17.37c-.46.56-1.03,1.15-1.64,1.66-.1.1-.2.15-.29.15-.12,0-.22-.07-.34-.2-2.05-2.39-4.15-4.32-6.35-6.05-2.76,2.88-5.54,4.95-8.2,6.44-.22.1-.39.2-.56.2-.15,0-.29-.07-.42-.22-.54-.66-1.25-1.15-2.05-1.59,3.81-1.93,6.08-3.66,8.59-6.22,1.76-1.83,3.1-3.56,4.59-6.13l-6.3.02c-1.27,0-2.54.05-3.86.15-.2.02-.27-.15-.32-.42-.12-.51-.22-1.68-.22-2.54,1.32.1,2.54.1,4.12.1h6.71Z"/>
        <path class="cls-1" d="M304.14,20.4c-.15,2.73-.49,4.37-1.44,6.22-.98,1.9-2.73,3.69-4.3,4.61-.27.17-.51.29-.73.29-.17,0-.34-.07-.51-.24-.49-.49-1.32-.98-2.17-1.29,2.39-1.29,3.83-2.49,4.86-4.34.9-1.61,1.15-2.93,1.24-5.25h-4.64c-1.22,0-2.42.07-3.66.15-.22.02-.29-.15-.32-.46-.12-.68-.2-1.61-.2-2.34,1.37.12,2.73.12,4.15.12h10.96c1.9,0,3.32-.05,4.76-.15.24,0,.27.15.27.49.02.32.02,1.56,0,1.88,0,.32-.15.42-.37.42-1.27-.05-2.95-.1-4.64-.1h-3.27ZM299.31,14.74c-1.12,0-2.1.05-3.46.1-.32,0-.39-.12-.42-.42-.07-.59-.1-1.46-.17-2.34,1.71.1,2.95.12,4.05.12h5.47c1.37,0,2.9-.02,4.12-.1.24,0,.29.15.29.46.05.59.05,1.2,0,1.78,0,.34-.05.46-.32.46-1.32-.05-2.76-.07-4.1-.07h-5.47Z"/>
        <path class="cls-1" d="M321.2,22.84c-2.42,0-3.34.29-3.59.29-.29,0-.49-.15-.56-.51-.12-.56-.27-1.71-.37-2.95,1.59.24,2.81.29,5.27.29h7.86c1.85,0,3.73-.05,5.61-.07.37-.02.44.05.44.34.05.73.05,1.56,0,2.29,0,.29-.1.39-.44.37-1.83-.02-3.64-.05-5.44-.05h-8.79Z"/>
        <path class="cls-1" d="M341.64,17.69c.12-.17.24-.29.46-.24,1.83.61,3.29,1.39,4.69,2.39.17.12.27.22.27.37,0,.07-.05.17-.1.27-.27.66-.68,1.29-1.07,1.86-.12.15-.22.24-.32.24s-.17-.05-.29-.15c-1.56-1.15-3.15-1.95-4.93-2.66.61-.98,1-1.68,1.29-2.07ZM345.6,26.75c2.32-1.22,4.32-2.37,6.69-4.22,1.95-1.49,4.56-3.83,7.03-6.81.15,1.07.34,1.68.71,2.73.07.17.12.32.12.46,0,.2-.07.37-.27.56-2.27,2.44-3.81,3.78-6.2,5.64-2.12,1.61-4.39,3-7.3,4.59-.59.32-1.17.59-1.42.83-.15.15-.27.2-.39.2-.17,0-.34-.1-.49-.29-.51-.51-1.17-1.46-1.81-2.49,1.03-.2,1.88-.46,3.32-1.2ZM344.6,12.08c.17-.29.32-.34.61-.2,1.56.63,3.25,1.54,4.59,2.71.15.1.2.22.2.32s-.02.2-.1.32c-.34.61-.83,1.39-1.25,1.83-.07.12-.17.15-.24.15-.12,0-.24-.07-.37-.17-1.27-1.05-3.17-2.3-4.73-3,.42-.63.88-1.32,1.29-1.95Z"/>
        <path class="cls-1" d="M375.02,20.23h-5.64c-1.15,0-2.32.12-3.42.15-.22.02-.34-.17-.37-.56-.05-.61-.07-1.07-.12-2,1.39.12,2.15.12,3.9.12h4.25c1.2,0,2.54,0,3.61-.05.29,0,.39.15.37.39,0,1.1-.05,2.12-.05,3.2v5.64c0,1.1.05,2.22.1,3.47,0,.37-.12.44-.54.46-.39.02-1.17.05-1.66.05-.39,0-.44-.07-.44-.37v-.73h-5.78c-1.15,0-2.25.05-3.37.12-.24,0-.32-.12-.34-.49-.07-.49-.12-1.2-.12-2.03,1.32.1,2.51.1,3.93.1h5.69v-2.73h-5.17c-1.1,0-2.29.05-3.34.1-.29,0-.39-.15-.42-.54-.07-.49-.1-1.12-.1-1.95,1.32.1,2.22.12,3.81.12h5.22v-2.46Z"/>
        <path class="cls-1" d="M385.49,13.27c.1-.12.22-.2.34-.2.1,0,.2.05.32.12,1.24.66,3.27,2.15,4.66,3.47.15.15.22.24.22.34s-.05.2-.15.32c-.37.49-1.17,1.47-1.51,1.83-.12.12-.2.2-.29.2s-.2-.07-.32-.2c-1.46-1.51-3.22-2.9-4.98-3.98.54-.66,1.24-1.42,1.71-1.9ZM387.61,26.14c2.98-1.54,4.56-2.56,7.03-4.54,2.98-2.42,4.61-3.98,6.69-6.64.15,1.22.37,2.05.68,2.86.07.17.12.32.12.46,0,.22-.12.42-.39.73-1.29,1.51-3.39,3.47-5.61,5.17-2.03,1.59-4.08,2.95-7.37,4.78-1.1.66-1.42.9-1.64,1.12-.15.15-.29.24-.44.24-.12,0-.27-.1-.42-.27-.61-.68-1.37-1.68-1.95-2.71,1.24-.34,2-.56,3.29-1.22Z"/>
      </g>
      <g>
        <g>
          <path class="cls-1" d="M26.76,25.3l-16.11.06c-.38,0-.68-.3-.69-.68l-.03-8.06c0-.2.08-.41.23-.54l8.03-7c.26-.22.64-.22.89,0l3.25,2.8v-1.02c0-.38.3-.68.68-.69h2.66c.38-.01.68.29.69.67l.02,4.51.78.67c.15.13.23.31.24.5v.02s.03,8.07.03,8.07c0,.38-.3.68-.68.69ZM11.33,23.99l14.74-.05-.03-7.08-.78-.67c-.15-.13-.24-.32-.24-.52l-.02-4.14h-1.3s0,1.84,0,1.84c0,.27-.15.51-.4.62-.24.11-.53.07-.73-.1l-3.94-3.38-7.35,6.41.03,7.08Z"/>
          <g>
            <g>
              <path class="cls-1" d="M4.46,24.21H.65C.29,24.22,0,23.94,0,23.58s.29-.64.64-.65h3.82c.35-.02.64.27.65.63s-.29.64-.64.65Z"/>
              <path class="cls-1" d="M10.05,7.96l-2.71-2.69c-.25-.25-.25-.66,0-.91s.66-.25.91,0l2.71,2.69c.25.25.25.66,0,.91s-.66.25-.91,0Z"/>
              <path class="cls-1" d="M5.39,14.74l-3.53-1.45c-.33-.13-.49-.51-.35-.84s.51-.49.84-.35l3.53,1.45c.33.13.49.51.35.84s-.51.49-.84.35Z"/>
              <path class="cls-1" d="M17.98,4.46V.65C17.97.29,18.25,0,18.61,0s.64.29.65.64v3.82c.02.35-.27.64-.63.65s-.64-.29-.65-.64Z"/>
            </g>
            <g>
              <path class="cls-1" d="M32.94,24.1h3.82c.35-.02.64-.3.64-.66s-.29-.64-.65-.64h-3.82c-.35.02-.64.3-.64.66s.29.64.65.64Z"/>
              <path class="cls-1" d="M27.23,7.9l2.69-2.71c.25-.25.25-.66,0-.91s-.66-.25-.91,0l-2.69,2.71c-.25.25-.25.66,0,.91s.66.25.91,0Z"/>
              <path class="cls-1" d="M31.94,14.64l3.52-1.47c.33-.14.48-.51.34-.84s-.51-.48-.84-.34l-3.52,1.47c-.33.14-.48.51-.34.84s.51.48.84.34Z"/>
            </g>
          </g>
        </g>
        <g>
          <path class="cls-1" d="M25.41,37.45c-2.85-.25-4.88-.7-6.67-1.29-1.45-.39-3.1-.83-6.11-.82-3.95.01-6.34,1.65-6.34,1.65,0,0,3.04-.39,5.79-.15,2.85.25,4.88.7,6.67,1.29,1.45.39,3.1.83,6.11.82,3.95-.01,6.34-1.65,6.34-1.65,0,0-3.04.39-5.79.15ZM28.44,40.82s-1.86,1.41-4.92,1.42c-2.34,0-3.62-.37-4.75-.71-1.39-.51-2.96-.9-5.18-1.12-2.14-.21-4.5.13-4.5.13,0,0,1.86-1.41,4.92-1.42,2.34,0,3.62.37,4.75.71,1.39.51,2.96.9,5.18,1.12,2.14.21,4.5-.13,4.5-.13Z"/>
          <g>
            <path class="cls-1" d="M9.62,32.85c-.12-.33-.44-1.25-.78-2.24l-.06-.16c-.34-1-.66-1.94-.78-2.23l-.07-.14h-.29s-.06.12-.06.12c-.04.07-.2.39-.42.81l-.14.27c-.29.56-.62,1.22-.84,1.64-.39-.82-1.19-2.54-1.35-2.91l-.08-.13h-.33s-.04.19-.04.19c-.03.15-1.33,4.57-1.44,4.85l-.08.21.96.4.07-.25c.05-.19.57-2.05.86-3.08.33.76.85,1.86,1.14,2.45l.08.12h.27s.07-.12.07-.12c.13-.23.48-.9.78-1.5.19-.37.38-.74.53-1.03.31.91.91,2.73,1.04,3.14l.08.26.96-.46-.07-.2h0Z"/>
            <path class="cls-1" d="M16.19,30.25c-.48-.96-.97-1.94-1.24-2.43l-.08-.11h-.26s-.07.12-.07.12c-.07.12-.43.91-.89,1.91l-.09.19c-.51,1.12-1.1,2.39-1.27,2.74l-.09.18.9.63.11-.25c.05-.1.17-.42.29-.74.11-.27.25-.64.33-.83l1.86-.09c.12.24.38.78.55,1.15l.35.74.91-.68-.11-.18c-.21-.36-.74-1.41-1.2-2.35ZM15.28,30.68l-1.04.05s.04-.09.06-.14l.1-.24c.11-.25.24-.55.34-.79.16.34.39.81.54,1.12Z"/>
            <path class="cls-1" d="M22.28,30.75c.51-.42.77-.91.77-1.45,0-.7-.54-1.18-1.48-1.3-.36-.05-.8-.07-1.31-.07h-.26s.04.26.04.26c.01.1.03,1.41.04,1.73v.71c.02,1.89,0,2.26,0,2.3l-.04.26h1.12s-.03-.26-.03-.26c0-.1-.04-1.75-.04-2.08v-.1s.02.04.02.04c.2.31,1.59,2.32,1.66,2.41l.15.21.82-.74-.14-.17c-.14-.17-.97-1.29-1.31-1.77ZM21.08,30.54v-1.68c.37.03.91.14.91.54s-.27.76-.81,1.08l-.1.06Z"/>
            <path class="cls-1" d="M27.31,28.16l.02-.25h-1.12s.02.25.02.25c.01.15.04,1.87.04,1.96v.74c0,.18,0,1.79,0,2.08v.24s1.07,0,1.07,0v-.24c-.02-.15-.04-1.37-.04-2.07v-.74c0-.85,0-1.86.02-1.97Z"/>
            <path class="cls-1" d="M33.53,27.83v.24c0,.19-.02,2.05-.03,3.06-.89-1.01-2.83-3.24-2.98-3.43l-.08-.08h-.32s-.03.64-.03.64c-.06,1.56-.17,4.23-.19,4.66v.22s1.05.08,1.05.08v-.26c-.01-.13,0-1.51,0-2.52v-.69c.91,1.05,3.03,3.44,3.05,3.46l.08.07h.32s0-.23,0-.23c.02-1.73.12-4.52.15-4.94v-.23s-1.03-.06-1.03-.06Z"/>
          </g>
        </g>
      </g>
    </g>
  </g>
</svg>